%FSLAX45Y45*%
G04 Gerber Fmt 4.5, Leading zero omitted, Abs format (unit mm)*
G04 Created by KiCad (PCBNEW (6.0.5)) date 2022-06-29 19:51:04*
%MOMM*%
%LPD*%
G01*
G04 APERTURE LIST*
%TA.AperFunction,Profile*%
%ADD10C,0.100000*%
%TD*%
%TA.AperFunction,Profile*%
%ADD11C,1.550000*%
%TD*%
%ADD12C,0.200000*%
%ADD13C,0.150000*%
G04 APERTURE END LIST*
D10*
X13589000Y-11557000D02*
G75*
G03*
X13843000Y-11811000I254000J0D01*
G01*
X17907000Y-8255000D02*
G75*
G03*
X17653000Y-8001000I-254000J0D01*
G01*
D11*
X17730500Y-8255000D02*
G75*
G03*
X17730500Y-8255000I-77500J0D01*
G01*
D10*
X17653000Y-11811000D02*
G75*
G03*
X17907000Y-11557000I0J254000D01*
G01*
X17907000Y-8255000D02*
X17907000Y-11557000D01*
D11*
X17730500Y-11557000D02*
G75*
G03*
X17730500Y-11557000I-77500J0D01*
G01*
D10*
X13843000Y-11811000D02*
X17653000Y-11811000D01*
X13589000Y-8255000D02*
X13589000Y-11557000D01*
X17653000Y-8001000D02*
X13843000Y-8001000D01*
X13843000Y-8001000D02*
G75*
G03*
X13589000Y-8255000I0J-254000D01*
G01*
D12*
D13*
X13671500Y-8561000D02*
X13821500Y-8711000D01*
X13821500Y-8561000D02*
X13671500Y-8711000D01*
X13671500Y-9831000D02*
X13821500Y-9981000D01*
X13821500Y-9831000D02*
X13671500Y-9981000D01*
X13671500Y-11101000D02*
X13821500Y-11251000D01*
X13821500Y-11101000D02*
X13671500Y-11251000D01*
X14371500Y-8561000D02*
X14521500Y-8711000D01*
X14521500Y-8561000D02*
X14371500Y-8711000D01*
X14371500Y-9831000D02*
X14521500Y-9981000D01*
X14521500Y-9831000D02*
X14371500Y-9981000D01*
X14371500Y-11101000D02*
X14521500Y-11251000D01*
X14521500Y-11101000D02*
X14371500Y-11251000D01*
X16974500Y-9831000D02*
X17124500Y-9981000D01*
X17124500Y-9831000D02*
X16974500Y-9981000D01*
X17674500Y-9831000D02*
X17824500Y-9981000D01*
X17824500Y-9831000D02*
X17674500Y-9981000D01*
D12*
X13841619Y-12126476D02*
X13841619Y-11926476D01*
X13889238Y-11926476D01*
X13917809Y-11936000D01*
X13936857Y-11955048D01*
X13946381Y-11974095D01*
X13955905Y-12012190D01*
X13955905Y-12040762D01*
X13946381Y-12078857D01*
X13936857Y-12097905D01*
X13917809Y-12116952D01*
X13889238Y-12126476D01*
X13841619Y-12126476D01*
X14041619Y-12126476D02*
X14041619Y-11993143D01*
X14041619Y-12031238D02*
X14051143Y-12012190D01*
X14060667Y-12002667D01*
X14079714Y-11993143D01*
X14098762Y-11993143D01*
X14165428Y-12126476D02*
X14165428Y-11993143D01*
X14165428Y-11926476D02*
X14155905Y-11936000D01*
X14165428Y-11945524D01*
X14174952Y-11936000D01*
X14165428Y-11926476D01*
X14165428Y-11945524D01*
X14289238Y-12126476D02*
X14270190Y-12116952D01*
X14260667Y-12097905D01*
X14260667Y-11926476D01*
X14394000Y-12126476D02*
X14374952Y-12116952D01*
X14365428Y-12097905D01*
X14365428Y-11926476D01*
X14622571Y-12126476D02*
X14622571Y-11926476D01*
X14689238Y-12069333D01*
X14755905Y-11926476D01*
X14755905Y-12126476D01*
X14936857Y-12126476D02*
X14936857Y-12021714D01*
X14927333Y-12002667D01*
X14908286Y-11993143D01*
X14870190Y-11993143D01*
X14851143Y-12002667D01*
X14936857Y-12116952D02*
X14917809Y-12126476D01*
X14870190Y-12126476D01*
X14851143Y-12116952D01*
X14841619Y-12097905D01*
X14841619Y-12078857D01*
X14851143Y-12059809D01*
X14870190Y-12050286D01*
X14917809Y-12050286D01*
X14936857Y-12040762D01*
X15032095Y-11993143D02*
X15032095Y-12193143D01*
X15032095Y-12002667D02*
X15051143Y-11993143D01*
X15089238Y-11993143D01*
X15108286Y-12002667D01*
X15117809Y-12012190D01*
X15127333Y-12031238D01*
X15127333Y-12088381D01*
X15117809Y-12107428D01*
X15108286Y-12116952D01*
X15089238Y-12126476D01*
X15051143Y-12126476D01*
X15032095Y-12116952D01*
X15213048Y-12107428D02*
X15222571Y-12116952D01*
X15213048Y-12126476D01*
X15203524Y-12116952D01*
X15213048Y-12107428D01*
X15213048Y-12126476D01*
X15213048Y-12002667D02*
X15222571Y-12012190D01*
X15213048Y-12021714D01*
X15203524Y-12012190D01*
X15213048Y-12002667D01*
X15213048Y-12021714D01*
D13*
X13434000Y-12381000D02*
X13584000Y-12531000D01*
X13584000Y-12381000D02*
X13434000Y-12531000D01*
D12*
X13946381Y-12546476D02*
X13832095Y-12546476D01*
X13889238Y-12546476D02*
X13889238Y-12346476D01*
X13870190Y-12375048D01*
X13851143Y-12394095D01*
X13832095Y-12403619D01*
X14032095Y-12527428D02*
X14041619Y-12536952D01*
X14032095Y-12546476D01*
X14022571Y-12536952D01*
X14032095Y-12527428D01*
X14032095Y-12546476D01*
X14222571Y-12346476D02*
X14127333Y-12346476D01*
X14117809Y-12441714D01*
X14127333Y-12432190D01*
X14146381Y-12422667D01*
X14194000Y-12422667D01*
X14213048Y-12432190D01*
X14222571Y-12441714D01*
X14232095Y-12460762D01*
X14232095Y-12508381D01*
X14222571Y-12527428D01*
X14213048Y-12536952D01*
X14194000Y-12546476D01*
X14146381Y-12546476D01*
X14127333Y-12536952D01*
X14117809Y-12527428D01*
X14355905Y-12346476D02*
X14374952Y-12346476D01*
X14394000Y-12356000D01*
X14403524Y-12365524D01*
X14413048Y-12384571D01*
X14422571Y-12422667D01*
X14422571Y-12470286D01*
X14413048Y-12508381D01*
X14403524Y-12527428D01*
X14394000Y-12536952D01*
X14374952Y-12546476D01*
X14355905Y-12546476D01*
X14336857Y-12536952D01*
X14327333Y-12527428D01*
X14317809Y-12508381D01*
X14308286Y-12470286D01*
X14308286Y-12422667D01*
X14317809Y-12384571D01*
X14327333Y-12365524D01*
X14336857Y-12356000D01*
X14355905Y-12346476D01*
X14546381Y-12346476D02*
X14565428Y-12346476D01*
X14584476Y-12356000D01*
X14594000Y-12365524D01*
X14603524Y-12384571D01*
X14613048Y-12422667D01*
X14613048Y-12470286D01*
X14603524Y-12508381D01*
X14594000Y-12527428D01*
X14584476Y-12536952D01*
X14565428Y-12546476D01*
X14546381Y-12546476D01*
X14527333Y-12536952D01*
X14517809Y-12527428D01*
X14508286Y-12508381D01*
X14498762Y-12470286D01*
X14498762Y-12422667D01*
X14508286Y-12384571D01*
X14517809Y-12365524D01*
X14527333Y-12356000D01*
X14546381Y-12346476D01*
X14698762Y-12546476D02*
X14698762Y-12413143D01*
X14698762Y-12432190D02*
X14708286Y-12422667D01*
X14727333Y-12413143D01*
X14755905Y-12413143D01*
X14774952Y-12422667D01*
X14784476Y-12441714D01*
X14784476Y-12546476D01*
X14784476Y-12441714D02*
X14794000Y-12422667D01*
X14813048Y-12413143D01*
X14841619Y-12413143D01*
X14860667Y-12422667D01*
X14870190Y-12441714D01*
X14870190Y-12546476D01*
X14965428Y-12546476D02*
X14965428Y-12413143D01*
X14965428Y-12432190D02*
X14974952Y-12422667D01*
X14994000Y-12413143D01*
X15022571Y-12413143D01*
X15041619Y-12422667D01*
X15051143Y-12441714D01*
X15051143Y-12546476D01*
X15051143Y-12441714D02*
X15060667Y-12422667D01*
X15079714Y-12413143D01*
X15108286Y-12413143D01*
X15127333Y-12422667D01*
X15136857Y-12441714D01*
X15136857Y-12546476D01*
X15527333Y-12336952D02*
X15355905Y-12594095D01*
X15784476Y-12346476D02*
X15803524Y-12346476D01*
X15822571Y-12356000D01*
X15832095Y-12365524D01*
X15841619Y-12384571D01*
X15851143Y-12422667D01*
X15851143Y-12470286D01*
X15841619Y-12508381D01*
X15832095Y-12527428D01*
X15822571Y-12536952D01*
X15803524Y-12546476D01*
X15784476Y-12546476D01*
X15765428Y-12536952D01*
X15755905Y-12527428D01*
X15746381Y-12508381D01*
X15736857Y-12470286D01*
X15736857Y-12422667D01*
X15746381Y-12384571D01*
X15755905Y-12365524D01*
X15765428Y-12356000D01*
X15784476Y-12346476D01*
X15936857Y-12527428D02*
X15946381Y-12536952D01*
X15936857Y-12546476D01*
X15927333Y-12536952D01*
X15936857Y-12527428D01*
X15936857Y-12546476D01*
X16070190Y-12346476D02*
X16089238Y-12346476D01*
X16108286Y-12356000D01*
X16117809Y-12365524D01*
X16127333Y-12384571D01*
X16136857Y-12422667D01*
X16136857Y-12470286D01*
X16127333Y-12508381D01*
X16117809Y-12527428D01*
X16108286Y-12536952D01*
X16089238Y-12546476D01*
X16070190Y-12546476D01*
X16051143Y-12536952D01*
X16041619Y-12527428D01*
X16032095Y-12508381D01*
X16022571Y-12470286D01*
X16022571Y-12422667D01*
X16032095Y-12384571D01*
X16041619Y-12365524D01*
X16051143Y-12356000D01*
X16070190Y-12346476D01*
X16317809Y-12346476D02*
X16222571Y-12346476D01*
X16213048Y-12441714D01*
X16222571Y-12432190D01*
X16241619Y-12422667D01*
X16289238Y-12422667D01*
X16308286Y-12432190D01*
X16317809Y-12441714D01*
X16327333Y-12460762D01*
X16327333Y-12508381D01*
X16317809Y-12527428D01*
X16308286Y-12536952D01*
X16289238Y-12546476D01*
X16241619Y-12546476D01*
X16222571Y-12536952D01*
X16213048Y-12527428D01*
X16422571Y-12546476D02*
X16460667Y-12546476D01*
X16479714Y-12536952D01*
X16489238Y-12527428D01*
X16508286Y-12498857D01*
X16517809Y-12460762D01*
X16517809Y-12384571D01*
X16508286Y-12365524D01*
X16498762Y-12356000D01*
X16479714Y-12346476D01*
X16441619Y-12346476D01*
X16422571Y-12356000D01*
X16413048Y-12365524D01*
X16403524Y-12384571D01*
X16403524Y-12432190D01*
X16413048Y-12451238D01*
X16422571Y-12460762D01*
X16441619Y-12470286D01*
X16479714Y-12470286D01*
X16498762Y-12460762D01*
X16508286Y-12451238D01*
X16517809Y-12432190D01*
X16708286Y-12546476D02*
X16594000Y-12546476D01*
X16651143Y-12546476D02*
X16651143Y-12346476D01*
X16632095Y-12375048D01*
X16613048Y-12394095D01*
X16594000Y-12403619D01*
X16784476Y-12346476D02*
X16784476Y-12384571D01*
X16860667Y-12346476D02*
X16860667Y-12384571D01*
X17155905Y-12622667D02*
X17146381Y-12613143D01*
X17127333Y-12584571D01*
X17117810Y-12565524D01*
X17108286Y-12536952D01*
X17098762Y-12489333D01*
X17098762Y-12451238D01*
X17108286Y-12403619D01*
X17117810Y-12375048D01*
X17127333Y-12356000D01*
X17146381Y-12327428D01*
X17155905Y-12317905D01*
X17260667Y-12432190D02*
X17241619Y-12422667D01*
X17232095Y-12413143D01*
X17222571Y-12394095D01*
X17222571Y-12384571D01*
X17232095Y-12365524D01*
X17241619Y-12356000D01*
X17260667Y-12346476D01*
X17298762Y-12346476D01*
X17317810Y-12356000D01*
X17327333Y-12365524D01*
X17336857Y-12384571D01*
X17336857Y-12394095D01*
X17327333Y-12413143D01*
X17317810Y-12422667D01*
X17298762Y-12432190D01*
X17260667Y-12432190D01*
X17241619Y-12441714D01*
X17232095Y-12451238D01*
X17222571Y-12470286D01*
X17222571Y-12508381D01*
X17232095Y-12527428D01*
X17241619Y-12536952D01*
X17260667Y-12546476D01*
X17298762Y-12546476D01*
X17317810Y-12536952D01*
X17327333Y-12527428D01*
X17336857Y-12508381D01*
X17336857Y-12470286D01*
X17327333Y-12451238D01*
X17317810Y-12441714D01*
X17298762Y-12432190D01*
X17574952Y-12546476D02*
X17574952Y-12346476D01*
X17660667Y-12546476D02*
X17660667Y-12441714D01*
X17651143Y-12422667D01*
X17632095Y-12413143D01*
X17603524Y-12413143D01*
X17584476Y-12422667D01*
X17574952Y-12432190D01*
X17784476Y-12546476D02*
X17765429Y-12536952D01*
X17755905Y-12527428D01*
X17746381Y-12508381D01*
X17746381Y-12451238D01*
X17755905Y-12432190D01*
X17765429Y-12422667D01*
X17784476Y-12413143D01*
X17813048Y-12413143D01*
X17832095Y-12422667D01*
X17841619Y-12432190D01*
X17851143Y-12451238D01*
X17851143Y-12508381D01*
X17841619Y-12527428D01*
X17832095Y-12536952D01*
X17813048Y-12546476D01*
X17784476Y-12546476D01*
X17965429Y-12546476D02*
X17946381Y-12536952D01*
X17936857Y-12517905D01*
X17936857Y-12346476D01*
X18117810Y-12536952D02*
X18098762Y-12546476D01*
X18060667Y-12546476D01*
X18041619Y-12536952D01*
X18032095Y-12517905D01*
X18032095Y-12441714D01*
X18041619Y-12422667D01*
X18060667Y-12413143D01*
X18098762Y-12413143D01*
X18117810Y-12422667D01*
X18127333Y-12441714D01*
X18127333Y-12460762D01*
X18032095Y-12479809D01*
X18203524Y-12536952D02*
X18222571Y-12546476D01*
X18260667Y-12546476D01*
X18279714Y-12536952D01*
X18289238Y-12517905D01*
X18289238Y-12508381D01*
X18279714Y-12489333D01*
X18260667Y-12479809D01*
X18232095Y-12479809D01*
X18213048Y-12470286D01*
X18203524Y-12451238D01*
X18203524Y-12441714D01*
X18213048Y-12422667D01*
X18232095Y-12413143D01*
X18260667Y-12413143D01*
X18279714Y-12422667D01*
X18355905Y-12622667D02*
X18365429Y-12613143D01*
X18384476Y-12584571D01*
X18394000Y-12565524D01*
X18403524Y-12536952D01*
X18413048Y-12489333D01*
X18413048Y-12451238D01*
X18403524Y-12403619D01*
X18394000Y-12375048D01*
X18384476Y-12356000D01*
X18365429Y-12327428D01*
X18355905Y-12317905D01*
X18717810Y-12622667D02*
X18708286Y-12613143D01*
X18689238Y-12584571D01*
X18679714Y-12565524D01*
X18670190Y-12536952D01*
X18660667Y-12489333D01*
X18660667Y-12451238D01*
X18670190Y-12403619D01*
X18679714Y-12375048D01*
X18689238Y-12356000D01*
X18708286Y-12327428D01*
X18717810Y-12317905D01*
X18794000Y-12413143D02*
X18794000Y-12546476D01*
X18794000Y-12432190D02*
X18803524Y-12422667D01*
X18822571Y-12413143D01*
X18851143Y-12413143D01*
X18870190Y-12422667D01*
X18879714Y-12441714D01*
X18879714Y-12546476D01*
X19003524Y-12546476D02*
X18984476Y-12536952D01*
X18974952Y-12527428D01*
X18965429Y-12508381D01*
X18965429Y-12451238D01*
X18974952Y-12432190D01*
X18984476Y-12422667D01*
X19003524Y-12413143D01*
X19032095Y-12413143D01*
X19051143Y-12422667D01*
X19060667Y-12432190D01*
X19070190Y-12451238D01*
X19070190Y-12508381D01*
X19060667Y-12527428D01*
X19051143Y-12536952D01*
X19032095Y-12546476D01*
X19003524Y-12546476D01*
X19127333Y-12413143D02*
X19203524Y-12413143D01*
X19155905Y-12346476D02*
X19155905Y-12517905D01*
X19165429Y-12536952D01*
X19184476Y-12546476D01*
X19203524Y-12546476D01*
X19422571Y-12413143D02*
X19422571Y-12613143D01*
X19422571Y-12422667D02*
X19441619Y-12413143D01*
X19479714Y-12413143D01*
X19498762Y-12422667D01*
X19508286Y-12432190D01*
X19517810Y-12451238D01*
X19517810Y-12508381D01*
X19508286Y-12527428D01*
X19498762Y-12536952D01*
X19479714Y-12546476D01*
X19441619Y-12546476D01*
X19422571Y-12536952D01*
X19632095Y-12546476D02*
X19613048Y-12536952D01*
X19603524Y-12517905D01*
X19603524Y-12346476D01*
X19794000Y-12546476D02*
X19794000Y-12441714D01*
X19784476Y-12422667D01*
X19765429Y-12413143D01*
X19727333Y-12413143D01*
X19708286Y-12422667D01*
X19794000Y-12536952D02*
X19774952Y-12546476D01*
X19727333Y-12546476D01*
X19708286Y-12536952D01*
X19698762Y-12517905D01*
X19698762Y-12498857D01*
X19708286Y-12479809D01*
X19727333Y-12470286D01*
X19774952Y-12470286D01*
X19794000Y-12460762D01*
X19860667Y-12413143D02*
X19936857Y-12413143D01*
X19889238Y-12346476D02*
X19889238Y-12517905D01*
X19898762Y-12536952D01*
X19917810Y-12546476D01*
X19936857Y-12546476D01*
X20079714Y-12536952D02*
X20060667Y-12546476D01*
X20022571Y-12546476D01*
X20003524Y-12536952D01*
X19994000Y-12517905D01*
X19994000Y-12441714D01*
X20003524Y-12422667D01*
X20022571Y-12413143D01*
X20060667Y-12413143D01*
X20079714Y-12422667D01*
X20089238Y-12441714D01*
X20089238Y-12460762D01*
X19994000Y-12479809D01*
X20260667Y-12546476D02*
X20260667Y-12346476D01*
X20260667Y-12536952D02*
X20241619Y-12546476D01*
X20203524Y-12546476D01*
X20184476Y-12536952D01*
X20174952Y-12527428D01*
X20165429Y-12508381D01*
X20165429Y-12451238D01*
X20174952Y-12432190D01*
X20184476Y-12422667D01*
X20203524Y-12413143D01*
X20241619Y-12413143D01*
X20260667Y-12422667D01*
X20336857Y-12622667D02*
X20346381Y-12613143D01*
X20365429Y-12584571D01*
X20374952Y-12565524D01*
X20384476Y-12536952D01*
X20394000Y-12489333D01*
X20394000Y-12451238D01*
X20384476Y-12403619D01*
X20374952Y-12375048D01*
X20365429Y-12356000D01*
X20346381Y-12327428D01*
X20336857Y-12317905D01*
M02*
