%FSLAX45Y45*%
G04 Gerber Fmt 4.5, Leading zero omitted, Abs format (unit mm)*
G04 Created by KiCad (PCBNEW (6.0.5)) date 2022-06-29 19:51:04*
%MOMM*%
%LPD*%
G01*
G04 APERTURE LIST*
%TA.AperFunction,Profile*%
%ADD10C,0.100000*%
%TD*%
%TA.AperFunction,Profile*%
%ADD11C,1.550000*%
%TD*%
%ADD12C,0.200000*%
%ADD13C,0.090000*%
G04 APERTURE END LIST*
D10*
X13589000Y-11557000D02*
G75*
G03*
X13843000Y-11811000I254000J0D01*
G01*
X17907000Y-8255000D02*
G75*
G03*
X17653000Y-8001000I-254000J0D01*
G01*
D11*
X17730500Y-8255000D02*
G75*
G03*
X17730500Y-8255000I-77500J0D01*
G01*
D10*
X17653000Y-11811000D02*
G75*
G03*
X17907000Y-11557000I0J254000D01*
G01*
X17907000Y-8255000D02*
X17907000Y-11557000D01*
D11*
X17730500Y-11557000D02*
G75*
G03*
X17730500Y-11557000I-77500J0D01*
G01*
D10*
X13843000Y-11811000D02*
X17653000Y-11811000D01*
X13589000Y-8255000D02*
X13589000Y-11557000D01*
X17653000Y-8001000D02*
X13843000Y-8001000D01*
X13843000Y-8001000D02*
G75*
G03*
X13589000Y-8255000I0J-254000D01*
G01*
D12*
D13*
X15460750Y-8298750D02*
X15550750Y-8388750D01*
X15550750Y-8298750D02*
X15460750Y-8388750D01*
X15460750Y-8898750D02*
X15550750Y-8988750D01*
X15550750Y-8898750D02*
X15460750Y-8988750D01*
X15460750Y-9568750D02*
X15550750Y-9658750D01*
X15550750Y-9568750D02*
X15460750Y-9658750D01*
X15460750Y-10168750D02*
X15550750Y-10258750D01*
X15550750Y-10168750D02*
X15460750Y-10258750D01*
X15460750Y-10838750D02*
X15550750Y-10928750D01*
X15550750Y-10838750D02*
X15460750Y-10928750D01*
X15460750Y-11438750D02*
X15550750Y-11528750D01*
X15550750Y-11438750D02*
X15460750Y-11528750D01*
X15710750Y-8298750D02*
X15800750Y-8388750D01*
X15800750Y-8298750D02*
X15710750Y-8388750D01*
X15710750Y-8898750D02*
X15800750Y-8988750D01*
X15800750Y-8898750D02*
X15710750Y-8988750D01*
X15710750Y-9568750D02*
X15800750Y-9658750D01*
X15800750Y-9568750D02*
X15710750Y-9658750D01*
X15710750Y-10168750D02*
X15800750Y-10258750D01*
X15800750Y-10168750D02*
X15710750Y-10258750D01*
X15710750Y-10838750D02*
X15800750Y-10928750D01*
X15800750Y-10838750D02*
X15710750Y-10928750D01*
X15710750Y-11438750D02*
X15800750Y-11528750D01*
X15800750Y-11438750D02*
X15710750Y-11528750D01*
X15960750Y-8298750D02*
X16050750Y-8388750D01*
X16050750Y-8298750D02*
X15960750Y-8388750D01*
X15960750Y-8898750D02*
X16050750Y-8988750D01*
X16050750Y-8898750D02*
X15960750Y-8988750D01*
X15960750Y-9568750D02*
X16050750Y-9658750D01*
X16050750Y-9568750D02*
X15960750Y-9658750D01*
X15960750Y-10168750D02*
X16050750Y-10258750D01*
X16050750Y-10168750D02*
X15960750Y-10258750D01*
X15960750Y-10838750D02*
X16050750Y-10928750D01*
X16050750Y-10838750D02*
X15960750Y-10928750D01*
X15960750Y-11438750D02*
X16050750Y-11528750D01*
X16050750Y-11438750D02*
X15960750Y-11528750D01*
D12*
X13841619Y-12126476D02*
X13841619Y-11926476D01*
X13889238Y-11926476D01*
X13917809Y-11936000D01*
X13936857Y-11955048D01*
X13946381Y-11974095D01*
X13955905Y-12012190D01*
X13955905Y-12040762D01*
X13946381Y-12078857D01*
X13936857Y-12097905D01*
X13917809Y-12116952D01*
X13889238Y-12126476D01*
X13841619Y-12126476D01*
X14041619Y-12126476D02*
X14041619Y-11993143D01*
X14041619Y-12031238D02*
X14051143Y-12012190D01*
X14060667Y-12002667D01*
X14079714Y-11993143D01*
X14098762Y-11993143D01*
X14165428Y-12126476D02*
X14165428Y-11993143D01*
X14165428Y-11926476D02*
X14155905Y-11936000D01*
X14165428Y-11945524D01*
X14174952Y-11936000D01*
X14165428Y-11926476D01*
X14165428Y-11945524D01*
X14289238Y-12126476D02*
X14270190Y-12116952D01*
X14260667Y-12097905D01*
X14260667Y-11926476D01*
X14394000Y-12126476D02*
X14374952Y-12116952D01*
X14365428Y-12097905D01*
X14365428Y-11926476D01*
X14622571Y-12126476D02*
X14622571Y-11926476D01*
X14689238Y-12069333D01*
X14755905Y-11926476D01*
X14755905Y-12126476D01*
X14936857Y-12126476D02*
X14936857Y-12021714D01*
X14927333Y-12002667D01*
X14908286Y-11993143D01*
X14870190Y-11993143D01*
X14851143Y-12002667D01*
X14936857Y-12116952D02*
X14917809Y-12126476D01*
X14870190Y-12126476D01*
X14851143Y-12116952D01*
X14841619Y-12097905D01*
X14841619Y-12078857D01*
X14851143Y-12059809D01*
X14870190Y-12050286D01*
X14917809Y-12050286D01*
X14936857Y-12040762D01*
X15032095Y-11993143D02*
X15032095Y-12193143D01*
X15032095Y-12002667D02*
X15051143Y-11993143D01*
X15089238Y-11993143D01*
X15108286Y-12002667D01*
X15117809Y-12012190D01*
X15127333Y-12031238D01*
X15127333Y-12088381D01*
X15117809Y-12107428D01*
X15108286Y-12116952D01*
X15089238Y-12126476D01*
X15051143Y-12126476D01*
X15032095Y-12116952D01*
X15213048Y-12107428D02*
X15222571Y-12116952D01*
X15213048Y-12126476D01*
X15203524Y-12116952D01*
X15213048Y-12107428D01*
X15213048Y-12126476D01*
X15213048Y-12002667D02*
X15222571Y-12012190D01*
X15213048Y-12021714D01*
X15203524Y-12012190D01*
X15213048Y-12002667D01*
X15213048Y-12021714D01*
D13*
X13494000Y-12411000D02*
X13584000Y-12501000D01*
X13584000Y-12411000D02*
X13494000Y-12501000D01*
D12*
X13879714Y-12346476D02*
X13898762Y-12346476D01*
X13917809Y-12356000D01*
X13927333Y-12365524D01*
X13936857Y-12384571D01*
X13946381Y-12422667D01*
X13946381Y-12470286D01*
X13936857Y-12508381D01*
X13927333Y-12527428D01*
X13917809Y-12536952D01*
X13898762Y-12546476D01*
X13879714Y-12546476D01*
X13860667Y-12536952D01*
X13851143Y-12527428D01*
X13841619Y-12508381D01*
X13832095Y-12470286D01*
X13832095Y-12422667D01*
X13841619Y-12384571D01*
X13851143Y-12365524D01*
X13860667Y-12356000D01*
X13879714Y-12346476D01*
X14032095Y-12527428D02*
X14041619Y-12536952D01*
X14032095Y-12546476D01*
X14022571Y-12536952D01*
X14032095Y-12527428D01*
X14032095Y-12546476D01*
X14136857Y-12546476D02*
X14174952Y-12546476D01*
X14194000Y-12536952D01*
X14203524Y-12527428D01*
X14222571Y-12498857D01*
X14232095Y-12460762D01*
X14232095Y-12384571D01*
X14222571Y-12365524D01*
X14213048Y-12356000D01*
X14194000Y-12346476D01*
X14155905Y-12346476D01*
X14136857Y-12356000D01*
X14127333Y-12365524D01*
X14117809Y-12384571D01*
X14117809Y-12432190D01*
X14127333Y-12451238D01*
X14136857Y-12460762D01*
X14155905Y-12470286D01*
X14194000Y-12470286D01*
X14213048Y-12460762D01*
X14222571Y-12451238D01*
X14232095Y-12432190D01*
X14355905Y-12346476D02*
X14374952Y-12346476D01*
X14394000Y-12356000D01*
X14403524Y-12365524D01*
X14413048Y-12384571D01*
X14422571Y-12422667D01*
X14422571Y-12470286D01*
X14413048Y-12508381D01*
X14403524Y-12527428D01*
X14394000Y-12536952D01*
X14374952Y-12546476D01*
X14355905Y-12546476D01*
X14336857Y-12536952D01*
X14327333Y-12527428D01*
X14317809Y-12508381D01*
X14308286Y-12470286D01*
X14308286Y-12422667D01*
X14317809Y-12384571D01*
X14327333Y-12365524D01*
X14336857Y-12356000D01*
X14355905Y-12346476D01*
X14546381Y-12346476D02*
X14565428Y-12346476D01*
X14584476Y-12356000D01*
X14594000Y-12365524D01*
X14603524Y-12384571D01*
X14613048Y-12422667D01*
X14613048Y-12470286D01*
X14603524Y-12508381D01*
X14594000Y-12527428D01*
X14584476Y-12536952D01*
X14565428Y-12546476D01*
X14546381Y-12546476D01*
X14527333Y-12536952D01*
X14517809Y-12527428D01*
X14508286Y-12508381D01*
X14498762Y-12470286D01*
X14498762Y-12422667D01*
X14508286Y-12384571D01*
X14517809Y-12365524D01*
X14527333Y-12356000D01*
X14546381Y-12346476D01*
X14698762Y-12546476D02*
X14698762Y-12413143D01*
X14698762Y-12432190D02*
X14708286Y-12422667D01*
X14727333Y-12413143D01*
X14755905Y-12413143D01*
X14774952Y-12422667D01*
X14784476Y-12441714D01*
X14784476Y-12546476D01*
X14784476Y-12441714D02*
X14794000Y-12422667D01*
X14813048Y-12413143D01*
X14841619Y-12413143D01*
X14860667Y-12422667D01*
X14870190Y-12441714D01*
X14870190Y-12546476D01*
X14965428Y-12546476D02*
X14965428Y-12413143D01*
X14965428Y-12432190D02*
X14974952Y-12422667D01*
X14994000Y-12413143D01*
X15022571Y-12413143D01*
X15041619Y-12422667D01*
X15051143Y-12441714D01*
X15051143Y-12546476D01*
X15051143Y-12441714D02*
X15060667Y-12422667D01*
X15079714Y-12413143D01*
X15108286Y-12413143D01*
X15127333Y-12422667D01*
X15136857Y-12441714D01*
X15136857Y-12546476D01*
X15527333Y-12336952D02*
X15355905Y-12594095D01*
X15784476Y-12346476D02*
X15803524Y-12346476D01*
X15822571Y-12356000D01*
X15832095Y-12365524D01*
X15841619Y-12384571D01*
X15851143Y-12422667D01*
X15851143Y-12470286D01*
X15841619Y-12508381D01*
X15832095Y-12527428D01*
X15822571Y-12536952D01*
X15803524Y-12546476D01*
X15784476Y-12546476D01*
X15765428Y-12536952D01*
X15755905Y-12527428D01*
X15746381Y-12508381D01*
X15736857Y-12470286D01*
X15736857Y-12422667D01*
X15746381Y-12384571D01*
X15755905Y-12365524D01*
X15765428Y-12356000D01*
X15784476Y-12346476D01*
X15936857Y-12527428D02*
X15946381Y-12536952D01*
X15936857Y-12546476D01*
X15927333Y-12536952D01*
X15936857Y-12527428D01*
X15936857Y-12546476D01*
X16070190Y-12346476D02*
X16089238Y-12346476D01*
X16108286Y-12356000D01*
X16117809Y-12365524D01*
X16127333Y-12384571D01*
X16136857Y-12422667D01*
X16136857Y-12470286D01*
X16127333Y-12508381D01*
X16117809Y-12527428D01*
X16108286Y-12536952D01*
X16089238Y-12546476D01*
X16070190Y-12546476D01*
X16051143Y-12536952D01*
X16041619Y-12527428D01*
X16032095Y-12508381D01*
X16022571Y-12470286D01*
X16022571Y-12422667D01*
X16032095Y-12384571D01*
X16041619Y-12365524D01*
X16051143Y-12356000D01*
X16070190Y-12346476D01*
X16203524Y-12346476D02*
X16327333Y-12346476D01*
X16260667Y-12422667D01*
X16289238Y-12422667D01*
X16308286Y-12432190D01*
X16317809Y-12441714D01*
X16327333Y-12460762D01*
X16327333Y-12508381D01*
X16317809Y-12527428D01*
X16308286Y-12536952D01*
X16289238Y-12546476D01*
X16232095Y-12546476D01*
X16213048Y-12536952D01*
X16203524Y-12527428D01*
X16508286Y-12346476D02*
X16413048Y-12346476D01*
X16403524Y-12441714D01*
X16413048Y-12432190D01*
X16432095Y-12422667D01*
X16479714Y-12422667D01*
X16498762Y-12432190D01*
X16508286Y-12441714D01*
X16517809Y-12460762D01*
X16517809Y-12508381D01*
X16508286Y-12527428D01*
X16498762Y-12536952D01*
X16479714Y-12546476D01*
X16432095Y-12546476D01*
X16413048Y-12536952D01*
X16403524Y-12527428D01*
X16689238Y-12413143D02*
X16689238Y-12546476D01*
X16641619Y-12336952D02*
X16594000Y-12479809D01*
X16717809Y-12479809D01*
X16784476Y-12346476D02*
X16784476Y-12384571D01*
X16860667Y-12346476D02*
X16860667Y-12384571D01*
X17155905Y-12622667D02*
X17146381Y-12613143D01*
X17127333Y-12584571D01*
X17117810Y-12565524D01*
X17108286Y-12536952D01*
X17098762Y-12489333D01*
X17098762Y-12451238D01*
X17108286Y-12403619D01*
X17117810Y-12375048D01*
X17127333Y-12356000D01*
X17146381Y-12327428D01*
X17155905Y-12317905D01*
X17336857Y-12546476D02*
X17222571Y-12546476D01*
X17279714Y-12546476D02*
X17279714Y-12346476D01*
X17260667Y-12375048D01*
X17241619Y-12394095D01*
X17222571Y-12403619D01*
X17451143Y-12432190D02*
X17432095Y-12422667D01*
X17422571Y-12413143D01*
X17413048Y-12394095D01*
X17413048Y-12384571D01*
X17422571Y-12365524D01*
X17432095Y-12356000D01*
X17451143Y-12346476D01*
X17489238Y-12346476D01*
X17508286Y-12356000D01*
X17517810Y-12365524D01*
X17527333Y-12384571D01*
X17527333Y-12394095D01*
X17517810Y-12413143D01*
X17508286Y-12422667D01*
X17489238Y-12432190D01*
X17451143Y-12432190D01*
X17432095Y-12441714D01*
X17422571Y-12451238D01*
X17413048Y-12470286D01*
X17413048Y-12508381D01*
X17422571Y-12527428D01*
X17432095Y-12536952D01*
X17451143Y-12546476D01*
X17489238Y-12546476D01*
X17508286Y-12536952D01*
X17517810Y-12527428D01*
X17527333Y-12508381D01*
X17527333Y-12470286D01*
X17517810Y-12451238D01*
X17508286Y-12441714D01*
X17489238Y-12432190D01*
X17765429Y-12546476D02*
X17765429Y-12346476D01*
X17851143Y-12546476D02*
X17851143Y-12441714D01*
X17841619Y-12422667D01*
X17822571Y-12413143D01*
X17794000Y-12413143D01*
X17774952Y-12422667D01*
X17765429Y-12432190D01*
X17974952Y-12546476D02*
X17955905Y-12536952D01*
X17946381Y-12527428D01*
X17936857Y-12508381D01*
X17936857Y-12451238D01*
X17946381Y-12432190D01*
X17955905Y-12422667D01*
X17974952Y-12413143D01*
X18003524Y-12413143D01*
X18022571Y-12422667D01*
X18032095Y-12432190D01*
X18041619Y-12451238D01*
X18041619Y-12508381D01*
X18032095Y-12527428D01*
X18022571Y-12536952D01*
X18003524Y-12546476D01*
X17974952Y-12546476D01*
X18155905Y-12546476D02*
X18136857Y-12536952D01*
X18127333Y-12517905D01*
X18127333Y-12346476D01*
X18308286Y-12536952D02*
X18289238Y-12546476D01*
X18251143Y-12546476D01*
X18232095Y-12536952D01*
X18222571Y-12517905D01*
X18222571Y-12441714D01*
X18232095Y-12422667D01*
X18251143Y-12413143D01*
X18289238Y-12413143D01*
X18308286Y-12422667D01*
X18317810Y-12441714D01*
X18317810Y-12460762D01*
X18222571Y-12479809D01*
X18394000Y-12536952D02*
X18413048Y-12546476D01*
X18451143Y-12546476D01*
X18470190Y-12536952D01*
X18479714Y-12517905D01*
X18479714Y-12508381D01*
X18470190Y-12489333D01*
X18451143Y-12479809D01*
X18422571Y-12479809D01*
X18403524Y-12470286D01*
X18394000Y-12451238D01*
X18394000Y-12441714D01*
X18403524Y-12422667D01*
X18422571Y-12413143D01*
X18451143Y-12413143D01*
X18470190Y-12422667D01*
X18546381Y-12622667D02*
X18555905Y-12613143D01*
X18574952Y-12584571D01*
X18584476Y-12565524D01*
X18594000Y-12536952D01*
X18603524Y-12489333D01*
X18603524Y-12451238D01*
X18594000Y-12403619D01*
X18584476Y-12375048D01*
X18574952Y-12356000D01*
X18555905Y-12327428D01*
X18546381Y-12317905D01*
M02*
