%TF.GenerationSoftware,KiCad,Pcbnew,(6.0.5)*%
%TF.CreationDate,2022-06-29T19:51:02+08:00*%
%TF.ProjectId,audioswitch,61756469-6f73-4776-9974-63682e6b6963,rev?*%
%TF.SameCoordinates,Original*%
%TF.FileFunction,Legend,Top*%
%TF.FilePolarity,Positive*%
%FSLAX46Y46*%
G04 Gerber Fmt 4.6, Leading zero omitted, Abs format (unit mm)*
G04 Created by KiCad (PCBNEW (6.0.5)) date 2022-06-29 19:51:02*
%MOMM*%
%LPD*%
G01*
G04 APERTURE LIST*
%ADD10C,0.150000*%
%ADD11C,0.120000*%
G04 APERTURE END LIST*
D10*
X168965523Y-105608380D02*
X168489333Y-105608380D01*
X168489333Y-104608380D01*
X166878095Y-92718000D02*
X166782857Y-92670380D01*
X166640000Y-92670380D01*
X166497142Y-92718000D01*
X166401904Y-92813238D01*
X166354285Y-92908476D01*
X166306666Y-93098952D01*
X166306666Y-93241809D01*
X166354285Y-93432285D01*
X166401904Y-93527523D01*
X166497142Y-93622761D01*
X166640000Y-93670380D01*
X166735238Y-93670380D01*
X166878095Y-93622761D01*
X166925714Y-93575142D01*
X166925714Y-93241809D01*
X166735238Y-93241809D01*
X167354285Y-93670380D02*
X167354285Y-92670380D01*
X167925714Y-93670380D01*
X167925714Y-92670380D01*
X168401904Y-93670380D02*
X168401904Y-92670380D01*
X168640000Y-92670380D01*
X168782857Y-92718000D01*
X168878095Y-92813238D01*
X168925714Y-92908476D01*
X168973333Y-93098952D01*
X168973333Y-93241809D01*
X168925714Y-93432285D01*
X168878095Y-93527523D01*
X168782857Y-93622761D01*
X168640000Y-93670380D01*
X168401904Y-93670380D01*
X173029523Y-105608380D02*
X172696190Y-105132190D01*
X172458095Y-105608380D02*
X172458095Y-104608380D01*
X172839047Y-104608380D01*
X172934285Y-104656000D01*
X172981904Y-104703619D01*
X173029523Y-104798857D01*
X173029523Y-104941714D01*
X172981904Y-105036952D01*
X172934285Y-105084571D01*
X172839047Y-105132190D01*
X172458095Y-105132190D01*
X174950571Y-105608380D02*
X174950571Y-104608380D01*
X175283904Y-105322666D01*
X175617238Y-104608380D01*
X175617238Y-105608380D01*
X176093428Y-105608380D02*
X176093428Y-104608380D01*
X177141047Y-105513142D02*
X177093428Y-105560761D01*
X176950571Y-105608380D01*
X176855333Y-105608380D01*
X176712476Y-105560761D01*
X176617238Y-105465523D01*
X176569619Y-105370285D01*
X176522000Y-105179809D01*
X176522000Y-105036952D01*
X176569619Y-104846476D01*
X176617238Y-104751238D01*
X176712476Y-104656000D01*
X176855333Y-104608380D01*
X176950571Y-104608380D01*
X177093428Y-104656000D01*
X177141047Y-104703619D01*
%TO.C,EARPHONE OUT*%
X136763809Y-93146571D02*
X137097142Y-93146571D01*
X137240000Y-93670380D02*
X136763809Y-93670380D01*
X136763809Y-92670380D01*
X137240000Y-92670380D01*
X137620952Y-93384666D02*
X138097142Y-93384666D01*
X137525714Y-93670380D02*
X137859047Y-92670380D01*
X138192380Y-93670380D01*
X139097142Y-93670380D02*
X138763809Y-93194190D01*
X138525714Y-93670380D02*
X138525714Y-92670380D01*
X138906666Y-92670380D01*
X139001904Y-92718000D01*
X139049523Y-92765619D01*
X139097142Y-92860857D01*
X139097142Y-93003714D01*
X139049523Y-93098952D01*
X139001904Y-93146571D01*
X138906666Y-93194190D01*
X138525714Y-93194190D01*
X139525714Y-93670380D02*
X139525714Y-92670380D01*
X139906666Y-92670380D01*
X140001904Y-92718000D01*
X140049523Y-92765619D01*
X140097142Y-92860857D01*
X140097142Y-93003714D01*
X140049523Y-93098952D01*
X140001904Y-93146571D01*
X139906666Y-93194190D01*
X139525714Y-93194190D01*
X140525714Y-93670380D02*
X140525714Y-92670380D01*
X140525714Y-93146571D02*
X141097142Y-93146571D01*
X141097142Y-93670380D02*
X141097142Y-92670380D01*
X141763809Y-92670380D02*
X141954285Y-92670380D01*
X142049523Y-92718000D01*
X142144761Y-92813238D01*
X142192380Y-93003714D01*
X142192380Y-93337047D01*
X142144761Y-93527523D01*
X142049523Y-93622761D01*
X141954285Y-93670380D01*
X141763809Y-93670380D01*
X141668571Y-93622761D01*
X141573333Y-93527523D01*
X141525714Y-93337047D01*
X141525714Y-93003714D01*
X141573333Y-92813238D01*
X141668571Y-92718000D01*
X141763809Y-92670380D01*
X142620952Y-93670380D02*
X142620952Y-92670380D01*
X143192380Y-93670380D01*
X143192380Y-92670380D01*
X143668571Y-93146571D02*
X144001904Y-93146571D01*
X144144761Y-93670380D02*
X143668571Y-93670380D01*
X143668571Y-92670380D01*
X144144761Y-92670380D01*
X145525714Y-92670380D02*
X145716190Y-92670380D01*
X145811428Y-92718000D01*
X145906666Y-92813238D01*
X145954285Y-93003714D01*
X145954285Y-93337047D01*
X145906666Y-93527523D01*
X145811428Y-93622761D01*
X145716190Y-93670380D01*
X145525714Y-93670380D01*
X145430476Y-93622761D01*
X145335238Y-93527523D01*
X145287619Y-93337047D01*
X145287619Y-93003714D01*
X145335238Y-92813238D01*
X145430476Y-92718000D01*
X145525714Y-92670380D01*
X146382857Y-92670380D02*
X146382857Y-93479904D01*
X146430476Y-93575142D01*
X146478095Y-93622761D01*
X146573333Y-93670380D01*
X146763809Y-93670380D01*
X146859047Y-93622761D01*
X146906666Y-93575142D01*
X146954285Y-93479904D01*
X146954285Y-92670380D01*
X147287619Y-92670380D02*
X147859047Y-92670380D01*
X147573333Y-93670380D02*
X147573333Y-92670380D01*
%TO.C,MIC IN*%
X140075714Y-81462380D02*
X140075714Y-80462380D01*
X140409047Y-81176666D01*
X140742380Y-80462380D01*
X140742380Y-81462380D01*
X141218571Y-81462380D02*
X141218571Y-80462380D01*
X142266190Y-81367142D02*
X142218571Y-81414761D01*
X142075714Y-81462380D01*
X141980476Y-81462380D01*
X141837619Y-81414761D01*
X141742380Y-81319523D01*
X141694761Y-81224285D01*
X141647142Y-81033809D01*
X141647142Y-80890952D01*
X141694761Y-80700476D01*
X141742380Y-80605238D01*
X141837619Y-80510000D01*
X141980476Y-80462380D01*
X142075714Y-80462380D01*
X142218571Y-80510000D01*
X142266190Y-80557619D01*
X143456666Y-81462380D02*
X143456666Y-80462380D01*
X143932857Y-81462380D02*
X143932857Y-80462380D01*
X144504285Y-81462380D01*
X144504285Y-80462380D01*
%TO.C,SW_8mm*%
X154509880Y-81176761D02*
X154652738Y-81224380D01*
X154890833Y-81224380D01*
X154986071Y-81176761D01*
X155033690Y-81129142D01*
X155081309Y-81033904D01*
X155081309Y-80938666D01*
X155033690Y-80843428D01*
X154986071Y-80795809D01*
X154890833Y-80748190D01*
X154700357Y-80700571D01*
X154605119Y-80652952D01*
X154557500Y-80605333D01*
X154509880Y-80510095D01*
X154509880Y-80414857D01*
X154557500Y-80319619D01*
X154605119Y-80272000D01*
X154700357Y-80224380D01*
X154938452Y-80224380D01*
X155081309Y-80272000D01*
X155414642Y-80224380D02*
X155652738Y-81224380D01*
X155843214Y-80510095D01*
X156033690Y-81224380D01*
X156271785Y-80224380D01*
X156414642Y-81319619D02*
X157176547Y-81319619D01*
X157557500Y-80652952D02*
X157462261Y-80605333D01*
X157414642Y-80557714D01*
X157367023Y-80462476D01*
X157367023Y-80414857D01*
X157414642Y-80319619D01*
X157462261Y-80272000D01*
X157557500Y-80224380D01*
X157747976Y-80224380D01*
X157843214Y-80272000D01*
X157890833Y-80319619D01*
X157938452Y-80414857D01*
X157938452Y-80462476D01*
X157890833Y-80557714D01*
X157843214Y-80605333D01*
X157747976Y-80652952D01*
X157557500Y-80652952D01*
X157462261Y-80700571D01*
X157414642Y-80748190D01*
X157367023Y-80843428D01*
X157367023Y-81033904D01*
X157414642Y-81129142D01*
X157462261Y-81176761D01*
X157557500Y-81224380D01*
X157747976Y-81224380D01*
X157843214Y-81176761D01*
X157890833Y-81129142D01*
X157938452Y-81033904D01*
X157938452Y-80843428D01*
X157890833Y-80748190D01*
X157843214Y-80700571D01*
X157747976Y-80652952D01*
X158367023Y-81224380D02*
X158367023Y-80557714D01*
X158367023Y-80652952D02*
X158414642Y-80605333D01*
X158509880Y-80557714D01*
X158652738Y-80557714D01*
X158747976Y-80605333D01*
X158795595Y-80700571D01*
X158795595Y-81224380D01*
X158795595Y-80700571D02*
X158843214Y-80605333D01*
X158938452Y-80557714D01*
X159081309Y-80557714D01*
X159176547Y-80605333D01*
X159224166Y-80700571D01*
X159224166Y-81224380D01*
X159700357Y-81224380D02*
X159700357Y-80557714D01*
X159700357Y-80652952D02*
X159747976Y-80605333D01*
X159843214Y-80557714D01*
X159986071Y-80557714D01*
X160081309Y-80605333D01*
X160128928Y-80700571D01*
X160128928Y-81224380D01*
X160128928Y-80700571D02*
X160176547Y-80605333D01*
X160271785Y-80557714D01*
X160414642Y-80557714D01*
X160509880Y-80605333D01*
X160557500Y-80700571D01*
X160557500Y-81224380D01*
X154509880Y-93792261D02*
X154652738Y-93839880D01*
X154890833Y-93839880D01*
X154986071Y-93792261D01*
X155033690Y-93744642D01*
X155081309Y-93649404D01*
X155081309Y-93554166D01*
X155033690Y-93458928D01*
X154986071Y-93411309D01*
X154890833Y-93363690D01*
X154700357Y-93316071D01*
X154605119Y-93268452D01*
X154557500Y-93220833D01*
X154509880Y-93125595D01*
X154509880Y-93030357D01*
X154557500Y-92935119D01*
X154605119Y-92887500D01*
X154700357Y-92839880D01*
X154938452Y-92839880D01*
X155081309Y-92887500D01*
X155414642Y-92839880D02*
X155652738Y-93839880D01*
X155843214Y-93125595D01*
X156033690Y-93839880D01*
X156271785Y-92839880D01*
X156414642Y-93935119D02*
X157176547Y-93935119D01*
X157557500Y-93268452D02*
X157462261Y-93220833D01*
X157414642Y-93173214D01*
X157367023Y-93077976D01*
X157367023Y-93030357D01*
X157414642Y-92935119D01*
X157462261Y-92887500D01*
X157557500Y-92839880D01*
X157747976Y-92839880D01*
X157843214Y-92887500D01*
X157890833Y-92935119D01*
X157938452Y-93030357D01*
X157938452Y-93077976D01*
X157890833Y-93173214D01*
X157843214Y-93220833D01*
X157747976Y-93268452D01*
X157557500Y-93268452D01*
X157462261Y-93316071D01*
X157414642Y-93363690D01*
X157367023Y-93458928D01*
X157367023Y-93649404D01*
X157414642Y-93744642D01*
X157462261Y-93792261D01*
X157557500Y-93839880D01*
X157747976Y-93839880D01*
X157843214Y-93792261D01*
X157890833Y-93744642D01*
X157938452Y-93649404D01*
X157938452Y-93458928D01*
X157890833Y-93363690D01*
X157843214Y-93316071D01*
X157747976Y-93268452D01*
X158367023Y-93839880D02*
X158367023Y-93173214D01*
X158367023Y-93268452D02*
X158414642Y-93220833D01*
X158509880Y-93173214D01*
X158652738Y-93173214D01*
X158747976Y-93220833D01*
X158795595Y-93316071D01*
X158795595Y-93839880D01*
X158795595Y-93316071D02*
X158843214Y-93220833D01*
X158938452Y-93173214D01*
X159081309Y-93173214D01*
X159176547Y-93220833D01*
X159224166Y-93316071D01*
X159224166Y-93839880D01*
X159700357Y-93839880D02*
X159700357Y-93173214D01*
X159700357Y-93268452D02*
X159747976Y-93220833D01*
X159843214Y-93173214D01*
X159986071Y-93173214D01*
X160081309Y-93220833D01*
X160128928Y-93316071D01*
X160128928Y-93839880D01*
X160128928Y-93316071D02*
X160176547Y-93220833D01*
X160271785Y-93173214D01*
X160414642Y-93173214D01*
X160509880Y-93220833D01*
X160557500Y-93316071D01*
X160557500Y-93839880D01*
X154509880Y-106492261D02*
X154652738Y-106539880D01*
X154890833Y-106539880D01*
X154986071Y-106492261D01*
X155033690Y-106444642D01*
X155081309Y-106349404D01*
X155081309Y-106254166D01*
X155033690Y-106158928D01*
X154986071Y-106111309D01*
X154890833Y-106063690D01*
X154700357Y-106016071D01*
X154605119Y-105968452D01*
X154557500Y-105920833D01*
X154509880Y-105825595D01*
X154509880Y-105730357D01*
X154557500Y-105635119D01*
X154605119Y-105587500D01*
X154700357Y-105539880D01*
X154938452Y-105539880D01*
X155081309Y-105587500D01*
X155414642Y-105539880D02*
X155652738Y-106539880D01*
X155843214Y-105825595D01*
X156033690Y-106539880D01*
X156271785Y-105539880D01*
X156414642Y-106635119D02*
X157176547Y-106635119D01*
X157557500Y-105968452D02*
X157462261Y-105920833D01*
X157414642Y-105873214D01*
X157367023Y-105777976D01*
X157367023Y-105730357D01*
X157414642Y-105635119D01*
X157462261Y-105587500D01*
X157557500Y-105539880D01*
X157747976Y-105539880D01*
X157843214Y-105587500D01*
X157890833Y-105635119D01*
X157938452Y-105730357D01*
X157938452Y-105777976D01*
X157890833Y-105873214D01*
X157843214Y-105920833D01*
X157747976Y-105968452D01*
X157557500Y-105968452D01*
X157462261Y-106016071D01*
X157414642Y-106063690D01*
X157367023Y-106158928D01*
X157367023Y-106349404D01*
X157414642Y-106444642D01*
X157462261Y-106492261D01*
X157557500Y-106539880D01*
X157747976Y-106539880D01*
X157843214Y-106492261D01*
X157890833Y-106444642D01*
X157938452Y-106349404D01*
X157938452Y-106158928D01*
X157890833Y-106063690D01*
X157843214Y-106016071D01*
X157747976Y-105968452D01*
X158367023Y-106539880D02*
X158367023Y-105873214D01*
X158367023Y-105968452D02*
X158414642Y-105920833D01*
X158509880Y-105873214D01*
X158652738Y-105873214D01*
X158747976Y-105920833D01*
X158795595Y-106016071D01*
X158795595Y-106539880D01*
X158795595Y-106016071D02*
X158843214Y-105920833D01*
X158938452Y-105873214D01*
X159081309Y-105873214D01*
X159176547Y-105920833D01*
X159224166Y-106016071D01*
X159224166Y-106539880D01*
X159700357Y-106539880D02*
X159700357Y-105873214D01*
X159700357Y-105968452D02*
X159747976Y-105920833D01*
X159843214Y-105873214D01*
X159986071Y-105873214D01*
X160081309Y-105920833D01*
X160128928Y-106016071D01*
X160128928Y-106539880D01*
X160128928Y-106016071D02*
X160176547Y-105920833D01*
X160271785Y-105873214D01*
X160414642Y-105873214D01*
X160509880Y-105920833D01*
X160557500Y-106016071D01*
X160557500Y-106539880D01*
%TO.C,HEADSET OUT*%
X137200285Y-106116380D02*
X137200285Y-105116380D01*
X137200285Y-105592571D02*
X137771714Y-105592571D01*
X137771714Y-106116380D02*
X137771714Y-105116380D01*
X138247904Y-105592571D02*
X138581238Y-105592571D01*
X138724095Y-106116380D02*
X138247904Y-106116380D01*
X138247904Y-105116380D01*
X138724095Y-105116380D01*
X139105047Y-105830666D02*
X139581238Y-105830666D01*
X139009809Y-106116380D02*
X139343142Y-105116380D01*
X139676476Y-106116380D01*
X140009809Y-106116380D02*
X140009809Y-105116380D01*
X140247904Y-105116380D01*
X140390761Y-105164000D01*
X140486000Y-105259238D01*
X140533619Y-105354476D01*
X140581238Y-105544952D01*
X140581238Y-105687809D01*
X140533619Y-105878285D01*
X140486000Y-105973523D01*
X140390761Y-106068761D01*
X140247904Y-106116380D01*
X140009809Y-106116380D01*
X140962190Y-106068761D02*
X141105047Y-106116380D01*
X141343142Y-106116380D01*
X141438380Y-106068761D01*
X141486000Y-106021142D01*
X141533619Y-105925904D01*
X141533619Y-105830666D01*
X141486000Y-105735428D01*
X141438380Y-105687809D01*
X141343142Y-105640190D01*
X141152666Y-105592571D01*
X141057428Y-105544952D01*
X141009809Y-105497333D01*
X140962190Y-105402095D01*
X140962190Y-105306857D01*
X141009809Y-105211619D01*
X141057428Y-105164000D01*
X141152666Y-105116380D01*
X141390761Y-105116380D01*
X141533619Y-105164000D01*
X141962190Y-105592571D02*
X142295523Y-105592571D01*
X142438380Y-106116380D02*
X141962190Y-106116380D01*
X141962190Y-105116380D01*
X142438380Y-105116380D01*
X142724095Y-105116380D02*
X143295523Y-105116380D01*
X143009809Y-106116380D02*
X143009809Y-105116380D01*
X144581238Y-105116380D02*
X144771714Y-105116380D01*
X144866952Y-105164000D01*
X144962190Y-105259238D01*
X145009809Y-105449714D01*
X145009809Y-105783047D01*
X144962190Y-105973523D01*
X144866952Y-106068761D01*
X144771714Y-106116380D01*
X144581238Y-106116380D01*
X144486000Y-106068761D01*
X144390761Y-105973523D01*
X144343142Y-105783047D01*
X144343142Y-105449714D01*
X144390761Y-105259238D01*
X144486000Y-105164000D01*
X144581238Y-105116380D01*
X145438380Y-105116380D02*
X145438380Y-105925904D01*
X145486000Y-106021142D01*
X145533619Y-106068761D01*
X145628857Y-106116380D01*
X145819333Y-106116380D01*
X145914571Y-106068761D01*
X145962190Y-106021142D01*
X146009809Y-105925904D01*
X146009809Y-105116380D01*
X146343142Y-105116380D02*
X146914571Y-105116380D01*
X146628857Y-106116380D02*
X146628857Y-105116380D01*
%TO.C,I/O*%
X173450380Y-93670380D02*
X173450380Y-92670380D01*
X174640857Y-92622761D02*
X173783714Y-93908476D01*
X175164666Y-92670380D02*
X175355142Y-92670380D01*
X175450380Y-92718000D01*
X175545619Y-92813238D01*
X175593238Y-93003714D01*
X175593238Y-93337047D01*
X175545619Y-93527523D01*
X175450380Y-93622761D01*
X175355142Y-93670380D01*
X175164666Y-93670380D01*
X175069428Y-93622761D01*
X174974190Y-93527523D01*
X174926571Y-93337047D01*
X174926571Y-93003714D01*
X174974190Y-92813238D01*
X175069428Y-92718000D01*
X175164666Y-92670380D01*
D11*
%TO.C,EARPHONE OUT*%
X147965000Y-102160000D02*
X147965000Y-95960000D01*
X135865000Y-95960000D02*
X138240000Y-95960000D01*
X135865000Y-96560000D02*
X133865000Y-96560000D01*
X146840000Y-95960000D02*
X147965000Y-95960000D01*
X145290000Y-95960000D02*
X145290000Y-94560000D01*
X142890000Y-95960000D02*
X145290000Y-95960000D01*
X146840000Y-95960000D02*
X146840000Y-94560000D01*
X139890000Y-95960000D02*
X141240000Y-95960000D01*
X146390000Y-102160000D02*
X135865000Y-102160000D01*
X133865000Y-96560000D02*
X133865000Y-101560000D01*
X135865000Y-101560000D02*
X133865000Y-101560000D01*
X135865000Y-101560000D02*
X135865000Y-102160000D01*
X135865000Y-95960000D02*
X135865000Y-96560000D01*
%TO.C,MIC IN*%
X135865000Y-83860000D02*
X133865000Y-83860000D01*
X133865000Y-83860000D02*
X133865000Y-88860000D01*
X135865000Y-88860000D02*
X133865000Y-88860000D01*
X142890000Y-83260000D02*
X145290000Y-83260000D01*
X146390000Y-89460000D02*
X135865000Y-89460000D01*
X135865000Y-83260000D02*
X138240000Y-83260000D01*
X146840000Y-83260000D02*
X147965000Y-83260000D01*
X147965000Y-89460000D02*
X147965000Y-83260000D01*
X135865000Y-83260000D02*
X135865000Y-83860000D01*
X139890000Y-83260000D02*
X141240000Y-83260000D01*
X146840000Y-83260000D02*
X146840000Y-81860000D01*
X145290000Y-83260000D02*
X145290000Y-81860000D01*
X135865000Y-88860000D02*
X135865000Y-89460000D01*
%TO.C,SW_8mm*%
X162577500Y-91157500D02*
X152537500Y-91157500D01*
X153287500Y-81467500D02*
X152287500Y-81467500D01*
X155607500Y-84737500D02*
X155607500Y-88037500D01*
X162577500Y-81717500D02*
X152537500Y-81717500D01*
X159407500Y-88037500D02*
X155607500Y-88037500D01*
X159407500Y-84737500D02*
X155607500Y-84737500D01*
X162577500Y-91157500D02*
X162577500Y-81717500D01*
X152537500Y-91157500D02*
X152537500Y-81717500D01*
X152287500Y-82467500D02*
X152287500Y-81467500D01*
X159407500Y-84737500D02*
X159407500Y-88037500D01*
X162577500Y-103857500D02*
X152537500Y-103857500D01*
X153287500Y-94167500D02*
X152287500Y-94167500D01*
X155607500Y-97437500D02*
X155607500Y-100737500D01*
X162577500Y-94417500D02*
X152537500Y-94417500D01*
X159407500Y-100737500D02*
X155607500Y-100737500D01*
X159407500Y-97437500D02*
X155607500Y-97437500D01*
X162577500Y-103857500D02*
X162577500Y-94417500D01*
X152537500Y-103857500D02*
X152537500Y-94417500D01*
X152287500Y-95167500D02*
X152287500Y-94167500D01*
X159407500Y-97437500D02*
X159407500Y-100737500D01*
X162577500Y-116557500D02*
X152537500Y-116557500D01*
X153287500Y-106867500D02*
X152287500Y-106867500D01*
X155607500Y-110137500D02*
X155607500Y-113437500D01*
X162577500Y-107117500D02*
X152537500Y-107117500D01*
X159407500Y-113437500D02*
X155607500Y-113437500D01*
X159407500Y-110137500D02*
X155607500Y-110137500D01*
X162577500Y-116557500D02*
X162577500Y-107117500D01*
X152537500Y-116557500D02*
X152537500Y-107117500D01*
X152287500Y-107867500D02*
X152287500Y-106867500D01*
X159407500Y-110137500D02*
X159407500Y-113437500D01*
%TO.C,HEADSET OUT*%
X147965000Y-114860000D02*
X147965000Y-108660000D01*
X135865000Y-108660000D02*
X138240000Y-108660000D01*
X135865000Y-109260000D02*
X133865000Y-109260000D01*
X146840000Y-108660000D02*
X147965000Y-108660000D01*
X145290000Y-108660000D02*
X145290000Y-107260000D01*
X142890000Y-108660000D02*
X145290000Y-108660000D01*
X146840000Y-108660000D02*
X146840000Y-107260000D01*
X139890000Y-108660000D02*
X141240000Y-108660000D01*
X146390000Y-114860000D02*
X135865000Y-114860000D01*
X133865000Y-109260000D02*
X133865000Y-114260000D01*
X135865000Y-114260000D02*
X133865000Y-114260000D01*
X135865000Y-114260000D02*
X135865000Y-114860000D01*
X135865000Y-108660000D02*
X135865000Y-109260000D01*
%TO.C,I/O*%
X166995000Y-95960000D02*
X166995000Y-102160000D01*
X179095000Y-102160000D02*
X176720000Y-102160000D01*
X179095000Y-101560000D02*
X181095000Y-101560000D01*
X168120000Y-102160000D02*
X166995000Y-102160000D01*
X169670000Y-102160000D02*
X169670000Y-103560000D01*
X172070000Y-102160000D02*
X169670000Y-102160000D01*
X168120000Y-102160000D02*
X168120000Y-103560000D01*
X175070000Y-102160000D02*
X173720000Y-102160000D01*
X168570000Y-95960000D02*
X179095000Y-95960000D01*
X181095000Y-101560000D02*
X181095000Y-96560000D01*
X179095000Y-96560000D02*
X181095000Y-96560000D01*
X179095000Y-96560000D02*
X179095000Y-95960000D01*
X179095000Y-102160000D02*
X179095000Y-101560000D01*
%TD*%
M02*
