%TF.GenerationSoftware,KiCad,Pcbnew,(6.0.5)*%
%TF.CreationDate,2022-06-29T19:51:02+08:00*%
%TF.ProjectId,audioswitch,61756469-6f73-4776-9974-63682e6b6963,rev?*%
%TF.SameCoordinates,Original*%
%TF.FileFunction,Copper,L1,Top*%
%TF.FilePolarity,Positive*%
%FSLAX46Y46*%
G04 Gerber Fmt 4.6, Leading zero omitted, Abs format (unit mm)*
G04 Created by KiCad (PCBNEW (6.0.5)) date 2022-06-29 19:51:02*
%MOMM*%
%LPD*%
G01*
G04 APERTURE LIST*
%TA.AperFunction,SMDPad,CuDef*%
%ADD10R,1.200000X2.500000*%
%TD*%
%TA.AperFunction,ComponentPad*%
%ADD11R,1.800000X1.800000*%
%TD*%
%TA.AperFunction,ComponentPad*%
%ADD12C,1.800000*%
%TD*%
%TA.AperFunction,Conductor*%
%ADD13C,0.304800*%
%TD*%
G04 APERTURE END LIST*
D10*
%TO.P,EARPHONE OUT,R1*%
%TO.N,N/C*%
X142065000Y-95810000D03*
%TO.P,EARPHONE OUT,R2*%
X139065000Y-95810000D03*
%TO.P,EARPHONE OUT,S*%
X147165000Y-102310000D03*
%TO.P,EARPHONE OUT,T*%
X146065000Y-95810000D03*
%TD*%
%TO.P,MIC IN,R1*%
%TO.N,N/C*%
X142065000Y-83110000D03*
%TO.P,MIC IN,R2*%
X139065000Y-83110000D03*
%TO.P,MIC IN,S*%
X147165000Y-89610000D03*
%TO.P,MIC IN,T*%
X146065000Y-83110000D03*
%TD*%
D11*
%TO.P,SW_8mm,1*%
%TO.N,N/C*%
X155057500Y-83437500D03*
D12*
%TO.P,SW_8mm,2*%
X157557500Y-83437500D03*
%TO.P,SW_8mm,3*%
X160057500Y-83437500D03*
%TO.P,SW_8mm,4*%
X155057500Y-89437500D03*
%TO.P,SW_8mm,5*%
X157557500Y-89437500D03*
%TO.P,SW_8mm,6*%
X160057500Y-89437500D03*
%TD*%
D11*
%TO.P,SW_8mm,1*%
%TO.N,N/C*%
X155057500Y-96137500D03*
D12*
%TO.P,SW_8mm,2*%
X157557500Y-96137500D03*
%TO.P,SW_8mm,3*%
X160057500Y-96137500D03*
%TO.P,SW_8mm,4*%
X155057500Y-102137500D03*
%TO.P,SW_8mm,5*%
X157557500Y-102137500D03*
%TO.P,SW_8mm,6*%
X160057500Y-102137500D03*
%TD*%
D11*
%TO.P,SW_8mm,1*%
%TO.N,N/C*%
X155057500Y-108837500D03*
D12*
%TO.P,SW_8mm,2*%
X157557500Y-108837500D03*
%TO.P,SW_8mm,3*%
X160057500Y-108837500D03*
%TO.P,SW_8mm,4*%
X155057500Y-114837500D03*
%TO.P,SW_8mm,5*%
X157557500Y-114837500D03*
%TO.P,SW_8mm,6*%
X160057500Y-114837500D03*
%TD*%
D10*
%TO.P,HEADSET OUT,R1*%
%TO.N,N/C*%
X142065000Y-108510000D03*
%TO.P,HEADSET OUT,R2*%
X139065000Y-108510000D03*
%TO.P,HEADSET OUT,S*%
X147165000Y-115010000D03*
%TO.P,HEADSET OUT,T*%
X146065000Y-108510000D03*
%TD*%
%TO.P,I/O,R1*%
%TO.N,N/C*%
X172895000Y-102310000D03*
%TO.P,I/O,R2*%
X175895000Y-102310000D03*
%TO.P,I/O,S*%
X167795000Y-95810000D03*
%TO.P,I/O,T*%
X168895000Y-102310000D03*
%TD*%
D13*
%TO.N,*%
X157557500Y-114222500D02*
X157557500Y-114837500D01*
X163830000Y-113030000D02*
X158750000Y-113030000D01*
X172895000Y-103965000D02*
X163830000Y-113030000D01*
X158750000Y-113030000D02*
X157557500Y-114222500D01*
X172895000Y-102310000D02*
X172895000Y-103965000D01*
X156210000Y-111760000D02*
X157557500Y-110412500D01*
X147320000Y-111760000D02*
X156210000Y-111760000D01*
X146065000Y-110505000D02*
X147320000Y-111760000D01*
X146065000Y-108510000D02*
X146065000Y-110505000D01*
X157557500Y-110412500D02*
X157557500Y-108837500D01*
X157557500Y-97712500D02*
X157557500Y-96137500D01*
X156210000Y-99060000D02*
X157557500Y-97712500D01*
X147320000Y-99060000D02*
X156210000Y-99060000D01*
X146065000Y-97805000D02*
X147320000Y-99060000D01*
X146065000Y-95810000D02*
X146065000Y-97805000D01*
X166230000Y-102310000D02*
X168895000Y-102310000D01*
X160057500Y-96137500D02*
X166230000Y-102310000D01*
X160057500Y-84746500D02*
X175895000Y-100584000D01*
X147165000Y-103787000D02*
X146050000Y-104902000D01*
X142065000Y-95810000D02*
X142065000Y-98885000D01*
X157557500Y-83437500D02*
X157557500Y-87298500D01*
X168895000Y-102310000D02*
X168895000Y-104155000D01*
X164592000Y-116586000D02*
X174244000Y-106934000D01*
X149860000Y-100330000D02*
X151667500Y-102137500D01*
X148336000Y-116586000D02*
X164592000Y-116586000D01*
X146050000Y-104902000D02*
X141732000Y-104902000D01*
X147165000Y-115010000D02*
X147165000Y-115415000D01*
X139065000Y-106045000D02*
X140462000Y-104648000D01*
X154730000Y-83110000D02*
X155057500Y-83437500D01*
X141732000Y-87630000D02*
X140462000Y-88900000D01*
X151667500Y-114837500D02*
X155057500Y-114837500D01*
X142065000Y-98885000D02*
X143510000Y-100330000D01*
X140462000Y-106172000D02*
X140462000Y-112014000D01*
X174244000Y-106934000D02*
X174244000Y-100584000D01*
X160057500Y-83437500D02*
X160057500Y-84746500D01*
X139065000Y-108510000D02*
X139065000Y-106045000D01*
X147165000Y-115415000D02*
X148336000Y-116586000D01*
X146065000Y-83110000D02*
X154730000Y-83110000D01*
X157226000Y-87630000D02*
X141732000Y-87630000D01*
X169366000Y-95810000D02*
X167795000Y-95810000D01*
X157557500Y-87298500D02*
X157226000Y-87630000D01*
X143510000Y-100330000D02*
X149860000Y-100330000D01*
X161422500Y-89437500D02*
X164262500Y-92277500D01*
X168895000Y-104155000D02*
X164212500Y-108837500D01*
X174244000Y-100584000D02*
X169470000Y-95810000D01*
X160057500Y-89437500D02*
X161422500Y-89437500D01*
X140462000Y-112014000D02*
X143458000Y-115010000D01*
X154885000Y-89610000D02*
X155057500Y-89437500D01*
X151667500Y-102137500D02*
X155057500Y-102137500D01*
X142065000Y-111585000D02*
X143510000Y-113030000D01*
X142065000Y-108510000D02*
X142065000Y-111585000D01*
X141732000Y-104902000D02*
X140462000Y-106172000D01*
X140462000Y-88900000D02*
X140462000Y-104648000D01*
X157557500Y-89437500D02*
X160057500Y-89437500D01*
X169470000Y-95810000D02*
X167795000Y-95810000D01*
X143510000Y-113030000D02*
X149860000Y-113030000D01*
X164212500Y-108837500D02*
X160057500Y-108837500D01*
X143458000Y-115010000D02*
X147165000Y-115010000D01*
X149860000Y-113030000D02*
X151667500Y-114837500D01*
X164262500Y-92277500D02*
X167795000Y-95810000D01*
X147165000Y-89610000D02*
X154885000Y-89610000D01*
X147165000Y-102310000D02*
X147165000Y-103787000D01*
X175895000Y-100584000D02*
X175895000Y-102310000D01*
%TD*%
M02*
